# xmcd
#
# Track frame offsets: 
#        150
#        14719
#        27658
#        43289
#        58234
#        72005
#        87159
#        102178
#        116815
#        128269
#        145760
#        163837
#        176661
#        192006
#        206015
#        222197
#        238453
#        254743
#        270381
#        286967
#
# Disc length: 4026 seconds
#
# Revision: 0
# Processed by: cddbd v1.5.2PL0 Copyright (c) Steve Scherf et al.
# Submitted via: ExactAudioCopyFreeDBPlugin 1.0
#
DISCID=370fb814
DTITLE=สายัณห์ สัญญา - ลูกสาวผู้การ
DYEAR=2010
DGENRE=ไทยลูกทุ่ง
TTITLE0=นักเพลงคนจน
TTITLE1=ลูกสาวผู้การ
TTITLE2=รักเธอเท่าฟ้า
TTITLE3=จำปาลืมต้น
TTITLE4=พบรักปากน้ำโพ
TTITLE5=ปิดห้องร้องไห้
TTITLE6=พลัดคู่
TTITLE7=คิดถึงอุบล
TTITLE8=ฝากใจไว้อีสาน
TTITLE9=น้ำตาอีสาน
TTITLE10=น้ำตาชาวใต้
TTITLE11=แหม่มปลาร้า
TTITLE12=คุณนายชั่วโมง
TTITLE13=บอกแล้วน้องรวง
TTITLE14=ยอดรักลูกทัพเรือ
TTITLE15=ทหารกองหนุน
TTITLE16=คำสั่งเตรียมพร้อม
TTITLE17=ยอมตายที่ตาพระยา
TTITLE18=ทุ่งสานสะเทือน
TTITLE19=สุดทางด่านซ้าย
EXTD=
EXTT0=
EXTT1=
EXTT2=
EXTT3=
EXTT4=
EXTT5=
EXTT6=
EXTT7=
EXTT8=
EXTT9=
EXTT10=
EXTT11=
EXTT12=
EXTT13=
EXTT14=
EXTT15=
EXTT16=
EXTT17=
EXTT18=
EXTT19=
PLAYORDER=
